<svg width="24" height="24" viewBox="0 0 24 24" fill="none" xmlns="http://www.w3.org/2000/svg">
<path d="M10.5882 10.875C7.57819 10.875 5.12939 8.43577 5.12939 5.4375C5.12939 2.43923 7.57819 0 10.5882 0C13.5982 0 16.047 2.43923 16.047 5.4375C16.047 8.43577 13.5982 10.875 10.5882 10.875Z" fill="#EE2424"/>
<path d="M12.7059 14.8593C12.7059 13.6556 13.0452 12.5293 13.6333 11.5702C12.715 12.0246 11.6813 12.2812 10.5882 12.2812C9.17045 12.2812 7.85167 11.8512 6.75628 11.1152C5.40183 11.6382 4.15929 12.4414 3.10127 13.4953C1.10136 15.4873 0 18.1358 0 20.953V23.2968C0 23.6851 0.316047 24 0.705882 24H20.4706C20.8604 24 21.1765 23.6851 21.1765 23.2968V20.953C21.1765 20.9108 21.1753 20.8684 21.1748 20.8261C20.5126 21.0598 19.8004 21.1875 19.0588 21.1875C15.5558 21.1875 12.7059 18.3487 12.7059 14.8593Z" fill="#EE2424"/>
<path d="M19.0589 9.9375C16.3343 9.9375 14.1177 12.1455 14.1177 14.8594C14.1177 17.5733 16.3343 19.7812 19.0589 19.7812C21.7834 19.7812 24 17.5733 24 14.8594C24 12.1455 21.7834 9.9375 19.0589 9.9375ZM20.4706 15.5625H19.7647V16.2656C19.7647 16.6539 19.4487 16.9688 19.0589 16.9688C18.669 16.9688 18.353 16.6539 18.353 16.2656V15.5625H17.6471C17.2573 15.5625 16.9412 15.2477 16.9412 14.8594C16.9412 14.4711 17.2573 14.1562 17.6471 14.1562H18.353V13.4531C18.353 13.0648 18.669 12.75 19.0589 12.75C19.4487 12.75 19.7647 13.0648 19.7647 13.4531V14.1562H20.4706C20.8605 14.1562 21.1765 14.4711 21.1765 14.8594C21.1765 15.2477 20.8605 15.5625 20.4706 15.5625Z" fill="#EE2424"/>
</svg>
